<?xml version="1.0"?>
<svg xmlns="http://www.w3.org/2000/svg" viewBox="0 0 512 512" width="512" height="512"><g id="outline"><path d="M283.288,218.753A39.662,39.662,0,0,0,253.177,208.1a40,40,0,0,0-29.5,63.464,41.612,41.612,0,0,1,8.32,24.6V312a24,24,0,0,0,48,0V296.16a40.562,40.562,0,0,1,8.021-24.2A39.642,39.642,0,0,0,296,248,40.143,40.143,0,0,0,283.288,218.753ZM264,312a8,8,0,0,1-16,0v-7.84h16Zm11.221-49.634a56.56,56.56,0,0,0-10.646,25.794H247.418A58.416,58.416,0,0,0,236.6,262.124a23.75,23.75,0,0,1-4.542-15.818,24,24,0,0,1,40.313-15.856,23.993,23.993,0,0,1,2.85,31.916Z"/><path d="M256,200a8,8,0,0,0,8-8V176a8,8,0,0,0-16,0v16A8,8,0,0,0,256,200Z"/><path d="M224,208a8,8,0,0,0,5.657-13.657l-8-8a8,8,0,0,0-11.314,11.314l8,8A7.976,7.976,0,0,0,224,208Z"/><path d="M290.343,186.343l-8,8a8,8,0,0,0,11.314,11.314l8-8a8,8,0,0,0-11.314-11.314Z"/><path d="M496,256a48.073,48.073,0,0,0-40.871-47.468l-6.605-52.838a72.071,72.071,0,1,0-80.743-22.788L329.3,171.385a111.536,111.536,0,0,0-65.3-27.1V103.2a40,40,0,1,0-47.56-45.108L159.185,77.173a72.1,72.1,0,1,0-26.279,67.046l37.437,37.438a8.073,8.073,0,0,0,1.136.937A111.524,111.524,0,0,0,144.289,248H111.321A48,48,0,1,0,64,304c.584,0,1.163-.023,1.743-.044l12.19,48.763a72.081,72.081,0,1,0,66.286,26.375l38.48-38.479a111.794,111.794,0,0,0,146.6,0l38.48,38.479A71.706,71.706,0,0,0,353.814,440H295.2a40,40,0,1,0,0,16h64.333a71.99,71.99,0,1,0,75.687-103.122l18.459-49.225A48.062,48.062,0,0,0,496,256ZM256,472a24,24,0,1,1,24-24A24.028,24.028,0,0,1,256,472ZM379.094,367.781,340.615,329.3a111.536,111.536,0,0,0,27.1-65.3h32.968a48.123,48.123,0,0,0,36.264,38.7l-18.578,49.541A71.63,71.63,0,0,0,379.094,367.781ZM480,256a32,32,0,1,1-32-32A32.036,32.036,0,0,1,480,256Zm-40.956-47.149A48.113,48.113,0,0,0,400.679,248H367.711a111.536,111.536,0,0,0-27.1-65.3l38.479-38.48a71.468,71.468,0,0,0,53.773,15.215ZM408,88a16,16,0,1,1,16,16A16.019,16.019,0,0,1,408,88Zm0,32h32a16.014,16.014,0,0,1,15.863,14.014,55.827,55.827,0,0,1-63.726,0A16.014,16.014,0,0,1,408,120Zm16-88a55.965,55.965,0,0,1,44.645,89.759A32.166,32.166,0,0,0,450.576,105.8a32,32,0,1,0-53.152,0,32.166,32.166,0,0,0-18.069,15.955A55.965,55.965,0,0,1,424,32ZM256,40a24,24,0,1,1-24,24A24.028,24.028,0,0,1,256,40ZM32,88a56,56,0,1,1,100.645,33.759A32.166,32.166,0,0,0,114.576,105.8a32,32,0,1,0-53.152,0,32.166,32.166,0,0,0-18.069,15.955A55.711,55.711,0,0,1,32,88Zm40,0a16,16,0,1,1,16,16A16.019,16.019,0,0,1,72,88ZM56.137,134.014A16.014,16.014,0,0,1,72,120h32a16.014,16.014,0,0,1,15.863,14.014,55.827,55.827,0,0,1-63.726,0Zm88.082-1.108a71.625,71.625,0,0,0,15.523-39.054l57.7-19.233A40.128,40.128,0,0,0,248,103.2v41.094a111.524,111.524,0,0,0-65.406,27.19,8.073,8.073,0,0,0-.937-1.136ZM32,256a32,32,0,1,1,32,32A32.036,32.036,0,0,1,32,256Zm79.321,8h32.968a111.536,111.536,0,0,0,27.1,65.3l-38.479,38.48A71.622,71.622,0,0,0,94.32,352.294l-12.9-51.582A48.14,48.14,0,0,0,111.321,264ZM56.137,470.014A16.014,16.014,0,0,1,72,456h32a16.014,16.014,0,0,1,15.863,14.014,55.827,55.827,0,0,1-63.726,0ZM72,424a16,16,0,1,1,16,16A16.019,16.019,0,0,1,72,424Zm60.645,33.759A32.166,32.166,0,0,0,114.576,441.8a32,32,0,1,0-53.152,0,32.166,32.166,0,0,0-18.069,15.955,56,56,0,1,1,89.29,0ZM160,256a96,96,0,1,1,96,96A96.108,96.108,0,0,1,160,256ZM392.137,470.014A16.014,16.014,0,0,1,408,456h32a16.014,16.014,0,0,1,15.863,14.014,55.827,55.827,0,0,1-63.726,0ZM408,424a16,16,0,1,1,16,16A16.019,16.019,0,0,1,408,424Zm72,0a55.711,55.711,0,0,1-11.355,33.759A32.166,32.166,0,0,0,450.576,441.8a32,32,0,1,0-53.152,0,32.166,32.166,0,0,0-18.069,15.955A55.988,55.988,0,1,1,480,424Z"/></g></svg>
