<?xml version="1.0"?>
<svg xmlns="http://www.w3.org/2000/svg" id="Outline" viewBox="0 0 512 512" width="512" height="512"><path d="M394.734,136.481,344,118.033V96a8,8,0,0,0-5.029-7.428l-36.2-14.48L295.761,46.06A8,8,0,0,0,288,40h-8V16a8,8,0,0,0-8-8H240a8,8,0,0,0-8,8V40h-8a8,8,0,0,0-7.761,6.06l-7.008,28.032-36.2,14.48A8,8,0,0,0,168,96v22.033l-50.734,18.448a8,8,0,0,0-5,9.555L151.312,294.42C143.308,306.732,120,352.2,120,464a8,8,0,0,0,8,8h96v24a8,8,0,0,0,8,8h48a8,8,0,0,0,8-8V472h96a8,8,0,0,0,8-8c0-111.8-23.308-157.268-31.312-169.58l39.049-148.384A8,8,0,0,0,394.734,136.481ZM328,101.416V104a8,8,0,0,0,0,16v16a8,8,0,0,0,0,16v16a8,8,0,0,0,0,16v16a8,8,0,0,0,0,16v16a8,8,0,0,0,0,16v16a8,8,0,0,0,0,16v16a8,8,0,0,0,0,16v16a8,8,0,0,0,0,16v16H312V112a7.977,7.977,0,0,0-.239-1.94l-4.205-16.822ZM248,24h16V40H248ZM184,392h16v16H184Zm0-290.584,20.444-8.178-4.2,16.822A7.977,7.977,0,0,0,200,112V376H184V344a8,8,0,0,0,0-16V312a8,8,0,0,0,0-16V280a8,8,0,0,0,0-16V248a8,8,0,0,0,0-16V216a8,8,0,0,0,0-16V184a8,8,0,0,0,0-16V152a8,8,0,0,0,0-16V120a8,8,0,0,0,0-16ZM272,488H240V472h32Zm103.958-32H136.042c1.237-118.417,29.789-154.5,30.032-154.794a8,8,0,0,0,1.663-7.242L129.594,149.023,168,135.058V416a8,8,0,0,0,8,8h32a8,8,0,0,0,8-8V112.985L230.246,56h51.508L296,112.985V368a8,8,0,0,0,8,8h32a8,8,0,0,0,8-8V296.078a7.774,7.774,0,0,0,1.874,5.067C346.168,301.5,374.721,337.583,375.958,456Zm-31.7-162.036a8.2,8.2,0,0,0-.263,1.82V135.058l38.406,13.965Z"/></svg>
