<svg id="Capa_1" enable-background="new 0 0 512 512" height="512" viewBox="0 0 512 512" width="512" xmlns="http://www.w3.org/2000/svg"><g><g><path d="m404.288 274.636h-260.691c-4.142 0-7.499 3.358-7.499 7.499s3.358 7.499 7.499 7.499h260.692c4.142 0 7.499-3.358 7.499-7.499s-3.358-7.499-7.5-7.499z"/><path d="m404.288 322.961h-260.691c-4.142 0-7.499 3.358-7.499 7.499s3.358 7.499 7.499 7.499h260.692c4.142 0 7.499-3.358 7.499-7.499s-3.358-7.499-7.5-7.499z"/><path d="m404.288 371.286h-260.691c-4.142 0-7.499 3.358-7.499 7.499s3.358 7.499 7.499 7.499h260.692c4.142 0 7.499-3.358 7.499-7.499s-3.358-7.499-7.5-7.499z"/><path d="m404.288 419.611h-260.691c-4.142 0-7.499 3.358-7.499 7.499s3.358 7.499 7.499 7.499h260.692c4.142 0 7.499-3.358 7.499-7.499s-3.358-7.499-7.5-7.499z"/><path d="m404.288 175.702h-95.793c-4.142 0-7.499 3.358-7.499 7.499s3.358 7.499 7.499 7.499h95.793c4.142 0 7.499-3.358 7.499-7.499s-3.357-7.499-7.499-7.499z"/><path d="m404.288 136.06h-95.793c-4.142 0-7.499 3.358-7.499 7.499s3.358 7.499 7.499 7.499h95.793c4.142 0 7.499-3.358 7.499-7.499s-3.357-7.499-7.499-7.499z"/><path d="m456.229 417.08c4.142 0 7.499-3.358 7.499-7.499v-336.333c0-16.262-13.23-29.492-29.492-29.492h-14.264v-14.264c.001-16.262-13.229-29.492-29.491-29.492h-312.717c-16.262 0-29.492 13.23-29.492 29.492v409.26c0 16.262 13.23 29.492 29.492 29.492h14.263v14.263c0 16.262 13.23 29.492 29.492 29.492h312.716c16.262 0 29.492-13.23 29.492-29.492v-37.867c0-4.142-3.358-7.499-7.499-7.499s-7.499 3.358-7.499 7.499v37.868c0 7.992-6.502 14.493-14.493 14.493h-312.716c-7.992 0-14.493-6.501-14.493-14.493v-409.26c0-7.992 6.502-14.493 14.493-14.493h312.716c7.992 0 14.493 6.502 14.493 14.493v336.333c0 4.141 3.358 7.499 7.5 7.499zm-364.202-343.832v379.998h-14.263c-7.992 0-14.493-6.502-14.493-14.493v-409.261c0-7.992 6.502-14.493 14.493-14.493h312.717c7.992 0 14.493 6.502 14.493 14.493v14.263h-283.454c-16.262.001-29.493 13.231-29.493 29.493z"/><path d="m142.996 148.151c-4.142 0-7.499 3.358-7.499 7.499v56.637c0 11.761 8.793 21.561 20.466 22.826 2.829.309 83.658.011 83.778.01.027-.003.055-.006.082-.009 11.679-1.26 20.477-11.062 20.477-22.827v-97.813c0-12.661-10.3-22.961-22.961-22.961h-78.882c-12.661 0-22.961 10.3-22.961 22.961v5.871c0 4.142 3.358 7.499 7.499 7.499s7.499-3.358 7.499-7.499v-5.871c0-4.39 3.572-7.962 7.962-7.962h78.882c4.39 0 7.962 3.571 7.962 7.962v76.779c-5.73-6.069-12.601-11.009-20.28-14.509 3.219-5.071 5.004-11.012 5.004-17.208 0-17.714-14.412-32.126-32.127-32.126-17.714 0-32.126 14.412-32.126 32.126 0 6.197 1.785 12.137 5.004 17.208-7.68 3.5-14.551 8.44-20.281 14.51v-35.604c.001-4.142-3.356-7.499-7.498-7.499zm54.902-5.743c9.445 0 17.128 7.683 17.128 17.128 0 5.721-2.842 11.043-7.601 14.237-2.819 1.891-6.113 2.891-9.527 2.891s-6.708-.999-9.526-2.891c-4.76-3.194-7.601-8.516-7.601-14.237 0-9.445 7.683-17.128 17.127-17.128zm-14.739 45.655c4.538 2.35 9.563 3.599 14.739 3.599 5.175 0 10.2-1.249 14.739-3.599 14.197 4.34 25.686 14.707 31.484 28.409-1.251 2.034-3.396 3.464-5.93 3.731-.484.03-79.274.11-80.414.016l-.164-.015c-.004 0-.008-.001-.012-.001-2.533-.268-4.676-1.698-5.927-3.731 5.799-13.702 17.288-24.069 31.485-28.409z"/></g></g></svg>