<?xml version="1.0" encoding="iso-8859-1"?>
<!-- Generator: Adobe Illustrator 19.0.0, SVG Export Plug-In . SVG Version: 6.00 Build 0)  -->
<svg version="1.1" id="Layer_1" xmlns="http://www.w3.org/2000/svg" xmlns:xlink="http://www.w3.org/1999/xlink" x="0px" y="0px"
	 viewBox="0 0 480.006 480.006" style="enable-background:new 0 0 480.006 480.006;" xml:space="preserve">
<g>
	<g>
		<rect x="344" y="224.003" width="16" height="16"/>
	</g>
</g>
<g>
	<g>
		<rect x="312" y="224.003" width="16" height="16"/>
	</g>
</g>
<g>
	<g>
		<rect x="280" y="224.003" width="16" height="16"/>
	</g>
</g>
<g>
	<g>
		<path d="M479.16,436.419L464,406.115V286.331l10-2.584c3.528-0.912,6-4.096,6-7.744s-2.472-6.832-6-7.744l-84.768-21.928
			c1.728-4.456,2.768-9.264,2.768-14.328v-80h40v-16h-40v-16h64v-16h-64v-16h88v-16h-96h-64v-16c0-30.872-25.128-56-56-56h-48
			c-30.872,0-56,25.128-56,56v16H96c-4.424,0-8,3.576-8,8v152c0,5.064,1.04,9.872,2.768,14.336L6,268.259
			c-3.528,0.912-6,4.096-6,7.744s2.472,6.832,6,7.744l106,27.408v40.848H24v16h88v16H48v16h64v16H72v16h46.712l118.76,39.584
			c0.816,0.272,1.68,0.416,2.528,0.416s1.712-0.144,2.528-0.416l120-40c3.272-1.088,5.472-4.136,5.472-7.584V311.155l80-20.688
			v115.64l-15.16,30.312c-1.128,2.248-1.128,4.904,0,7.16l16,32c1.36,2.712,4.128,4.424,7.16,4.424c3.032,0,5.8-1.712,7.16-4.424
			l16-32C480.288,441.331,480.288,438.675,479.16,436.419z M176,56.003c0-22.056,17.944-40,40-40h48c22.056,0,40,17.944,40,40v16
			h-16v-16c0-13.232-10.768-24-24-24h-48c-13.232,0-24,10.768-24,24v16h-16V56.003z M272,56.003v16h-64v-16c0-4.416,3.584-8,8-8h48
			C268.416,48.003,272,51.587,272,56.003z M104,88.003h272v32c0,13.232-10.768,24-24,24h-16h-32h-32v-24c0-4.424-3.576-8-8-8h-48
			c-4.424,0-8,3.576-8,8v24h-32h-32h-16c-13.232,0-24-10.768-24-24V88.003z M328,160.003v16h-16v-16H328z M256,128.003v16h-32v-16
			H256z M168,160.003v16h-16v-16H168z M104,151.795c6.704,5.08,14.96,8.208,24,8.208h8v24c0,4.424,3.576,8,8,8h32
			c4.424,0,8-3.576,8-8v-24h32h48h32v24c0,4.424,3.576,8,8,8h32c4.424,0,8-3.576,8-8v-24h8c9.04,0,17.296-3.128,24-8.208v80.208
			c0,5.44-1.888,10.4-4.944,14.432c-0.048,0.056-0.12,0.096-0.168,0.16c-1.128,1.464-2.4,2.76-3.776,3.904
			c-0.064,0.056-0.128,0.112-0.2,0.16c-1.248,1.016-2.592,1.856-4,2.6c-0.24,0.12-0.464,0.272-0.704,0.384
			c-1.288,0.624-2.64,1.08-4.024,1.456c-0.336,0.088-0.648,0.232-0.984,0.304c-1.688,0.376-3.424,0.6-5.2,0.6H128
			c-1.776,0-3.512-0.224-5.208-0.608c-0.344-0.072-0.656-0.216-0.984-0.304c-1.376-0.376-2.736-0.832-4.016-1.456
			c-0.248-0.112-0.472-0.264-0.712-0.384c-1.4-0.736-2.752-1.584-3.992-2.592c-0.064-0.056-0.128-0.112-0.2-0.16
			c-1.376-1.144-2.648-2.44-3.776-3.904c-0.048-0.064-0.112-0.096-0.168-0.16c-3.056-4.032-4.944-8.992-4.944-14.432V151.795z
			 M352,418.235l-112,37.336l-112-37.336V315.299l110,28.448c0.656,0.168,1.328,0.256,2,0.256s1.344-0.088,2-0.256l110-28.448
			V418.235z M240,327.739L39.944,276.003l60.032-15.528c3.656,3.6,7.984,6.488,12.792,8.48c0.888,0.368,1.84,0.552,2.744,0.856
			c1.52,0.504,3.008,1.072,4.6,1.392c2.568,0.52,5.208,0.8,7.888,0.8h224c2.68,0,5.32-0.28,7.888-0.8
			c1.592-0.32,3.08-0.896,4.6-1.392c0.912-0.304,1.864-0.488,2.744-0.856c4.808-1.992,9.144-4.88,12.792-8.48l60.032,15.528
			L240,327.739z M456,454.115l-7.056-14.112L456,425.891l7.056,14.112L456,454.115z"/>
	</g>
</g>
<g>
</g>
<g>
</g>
<g>
</g>
<g>
</g>
<g>
</g>
<g>
</g>
<g>
</g>
<g>
</g>
<g>
</g>
<g>
</g>
<g>
</g>
<g>
</g>
<g>
</g>
<g>
</g>
<g>
</g>
</svg>
