<svg width="800" height="600" xmlns="http://www.w3.org/2000/svg">

 <g>
  <title>Layer 1</title>
  <line transform="rotate(0.351144 72 160)" stroke-width="10" id="svg_5" y2="193" x2="102" y1="127" x1="42" stroke="#000" fill="none"/>
  <line stroke-width="10" id="svg_6" y2="398" x2="103" y1="190" x1="101" stroke="#000" fill="none"/>
  <ellipse rx="10" id="svg_9" cy="121" cx="38" stroke-width="10" stroke="#000" fill="none"/>
  <ellipse id="svg_10" cy="219" cx="967" stroke-width="10" stroke="#000" fill="none"/>
  <line transform="rotate(0.351144 72 199)" stroke-width="10" id="svg_12" y2="232" x2="102" y1="166" x1="42" stroke="#000" fill="none"/>
  <line transform="rotate(0.351144 132 427)" stroke-width="10" id="svg_13" y2="460" x2="162" y1="394" x1="102" stroke="#000" fill="none"/>
  <line stroke-width="10" id="svg_14" y2="664" x2="162" y1="456" x1="160" stroke="#000" fill="none"/>
  <line stroke-width="10" id="svg_15" y2="624" x2="192" y1="416" x1="190" stroke="#000" fill="none"/>
  <line stroke="#000" id="svg_16" y2="315" x2="251" y1="420" x1="189" stroke-width="10" fill="none"/>
  <line stroke-width="10" id="svg_18" y2="317" x2="250" y1="109" x1="248" stroke="#000" fill="none"/>
  <line stroke-width="10" id="svg_19" y2="373" x2="215" y1="165" x1="213" stroke="#000" fill="none"/>
  <ellipse rx="10" id="svg_20" cy="157" cx="213" stroke-width="10" stroke="#000" fill="none"/>
  <line stroke="#000" id="svg_21" y2="-41.99999" x2="347" y1="113" x1="247" stroke-width="10" fill="none"/>
  <line stroke-width="10" id="svg_23" y2="566" x2="178" y1="358" x1="176" stroke="#000" fill="none"/>
  <ellipse rx="10" id="svg_24" cy="121" cx="426" stroke-width="10" stroke="#000" fill="none"/>
  <line stroke="#000" stroke-width="10" id="svg_25" y2="400" x2="177" y1="317" x1="103" fill="none"/>
  <line stroke-width="10" id="svg_26" y2="628" x2="237" y1="562" x1="177" stroke="#000" fill="none"/>
  <line stroke-width="10" id="svg_27" y2="832" x2="237" y1="624" x1="235" stroke="#000" fill="none"/>
  <line stroke-width="10" id="svg_28" y2="792" x2="267" y1="584" x1="265" stroke="#000" fill="none"/>
  <line stroke="#000" id="svg_29" y2="483" x2="326" y1="588" x1="264" stroke-width="10" fill="none"/>
  <line stroke-width="10" id="svg_30" y2="485" x2="325" y1="277" x1="323" stroke="#000" fill="none"/>
  <line stroke-width="10" id="svg_31" y2="541" x2="290" y1="333" x1="288" stroke="#000" fill="none"/>
  <ellipse rx="10" id="svg_32" cy="325" cx="288" stroke-width="10" stroke="#000" fill="none"/>
  <line stroke="#000" id="svg_33" y2="126.00001" x2="422" y1="281" x1="322" stroke-width="10" fill="none"/>
  <line stroke="#000" stroke-width="10" id="svg_34" y2="362" x2="177" y1="279" x1="103" fill="none"/>
  <line stroke-width="10" id="svg_35" y2="194" x2="596" y1="-14" x1="594" stroke="#000" fill="none"/>
  <line stroke="#000" stroke-width="10" id="svg_36" y2="262" x2="709" y1="190" x1="594" fill="none"/>
  <line stroke-width="10" id="svg_37" y2="466" x2="710" y1="258" x1="708" stroke="#000" fill="none"/>
  <line stroke="#000" stroke-width="10" id="svg_38" y2="533" x2="823" y1="461" x1="708" fill="none"/>
  <line stroke="#000" stroke-width="10" id="svg_39" y2="496" x2="824" y1="424" x1="709" fill="none"/>
  <line stroke-width="10" id="svg_41" y2="643" x2="732" y1="435" x1="730" stroke="#000" fill="none"/>
  <line stroke="#000" stroke-width="10" id="svg_42" y2="399" x2="669" y1="237" x1="667" fill="none"/>
  <ellipse rx="10" id="svg_43" cy="160" cx="37" stroke-width="10" stroke="#000" fill="none"/>
  <ellipse rx="10" id="svg_44" cy="406" cx="669" stroke-width="10" stroke="#000" fill="none"/>
  <line stroke="#000" id="svg_45" y2="217" x2="628" y1="322" x1="566" stroke-width="10" fill="none"/>
  <line stroke="#000" stroke-width="10" id="svg_46" y2="481" x2="569" y1="319" x1="567" fill="none"/>
  <line stroke="#000" id="svg_47" y2="479" x2="569" y1="584" x1="507" stroke-width="10" fill="none"/>
  <line stroke="#000" stroke-width="10" id="svg_48" y2="744" x2="510" y1="582" x1="508" fill="none"/>
  <line stroke-width="10" id="svg_49" y2="495" x2="590" y1="287" x1="588" stroke="#000" fill="none"/>
  <line stroke="#000" stroke-width="10" id="svg_51" y2="525" x2="704" y1="453" x1="589" fill="none"/>
  <line stroke-width="10" id="svg_52" y2="729" x2="704" y1="521" x1="702" stroke="#000" fill="none"/>
  <ellipse rx="10" id="svg_54" cy="501" cx="590" stroke-width="10" stroke="#000" fill="none"/>
  <line stroke-width="10" id="svg_55" y2="713" x2="677" y1="505" x1="675" stroke="#000" fill="none"/>
  <line stroke="#000" id="svg_56" y2="194" x2="595" y1="299" x1="533" stroke-width="10" fill="none"/>
  <line stroke="#000" stroke-width="10" id="svg_57" y2="457" x2="536" y1="295" x1="534" fill="none"/>
  <ellipse rx="10" id="svg_59" cy="470" cx="536" stroke-width="10" stroke="#000" fill="none"/>
  <line stroke="#000" stroke-width="10" id="svg_60" y2="210" x2="709" y1="138" x1="594" fill="none"/>
  <line stroke="#000" stroke-width="10" id="svg_61" y2="279" x2="819" y1="207" x1="704" fill="none"/>
 </g>
</svg>